Coordinates
version=1
nRows=5
nColumns=46
inDegrees=yes

Units are S.I. units (second, meters, Newtons, ...)
Angles are in degrees.

endheader
time	pelvis_tilt	pelvis_list	pelvis_rotation	pelvis_tx	pelvis_ty	pelvis_tz	bb_angle	bb_tx	bb_ty	bb_tz	hip_flexion_r	hip_adduction_r	hip_rotation_r	knee_angle_r	knee_angle_r_beta	ankle_angle_r	subtalar_angle_r	mtp_angle_r	crank_angle_r	hip_flexion_l	hip_adduction_l	hip_rotation_l	knee_angle_l	knee_angle_l_beta	ankle_angle_l	subtalar_angle_l	mtp_angle_l	crank_angle_l	lumbar_extension	lumbar_bending	lumbar_rotation	arm_flex_r	arm_add_r	arm_rot_r	elbow_flex_r	pro_sup_r	wrist_flex_r	wrist_dev_r	arm_flex_l	arm_add_l	arm_rot_l	elbow_flex_l	pro_sup_l	wrist_flex_l	wrist_dev_l
      2.50500000	    -31.19265351	      4.44646849	      4.46501468	      0.25770733	      1.06569665	     -0.19448782	      0.00000000	      0.50000000	      0.00000000	      0.25000000	     60.14553471	     -8.71468869	      3.69163337	     42.65646348	      0.74449573	    -12.59121609	    -14.22198249	      0.00000000	      0.00000000	     62.48504083	     -2.62269085	      1.01266307	     85.30013654	      1.48876824	     -8.50663998	     -5.69635417	      0.00000000	      0.00000000	    -45.42875282	      8.50703645	      3.38336475	     53.81709425	    -16.10699885	     20.05770330	     82.48116947	     51.37197233	      0.00000000	      0.00000000	     70.76862205	    -15.71657472	     46.65965948	     49.43148608	     48.69958176	      0.00000000	      0.00000000
      2.51000000	    -31.00584016	      4.75043536	      4.59589934	      0.25825201	      1.06322147	     -0.19357783	      0.00000000	      0.50000000	      0.00000000	      0.25000000	     59.24754284	     -8.98179302	      3.66794902	     41.76616077	      0.72895702	    -13.15243811	    -14.19951400	      0.00000000	      0.00000000	     63.29045796	     -2.93245916	      0.68116276	     87.16090573	      1.52124478	     -7.22333085	     -4.35017684	      0.00000000	      0.00000000	    -45.16278842	      7.77503295	      3.45436813	     53.20027859	    -17.67037864	     20.48985273	     82.62345460	     51.43178810	      0.00000000	      0.00000000	     70.78850322	    -14.86264913	     46.83447349	     49.32372509	     48.73106956	      0.00000000	      0.00000000
      2.51500000	    -30.75556091	      5.15471114	      4.78870942	      0.25901215	      1.06096354	     -0.19291731	      0.00000000	      0.50000000	      0.00000000	      0.25000000	     58.26552581	     -9.43983160	      3.56521591	     40.90252081	      0.71388366	    -13.62832719	    -13.90452047	      0.00000000	      0.00000000	     63.99473262	     -3.12605433	      0.23347438	     88.92664130	      1.55206268	     -6.32392703	     -3.63115124	      0.00000000	      0.00000000	    -45.00102286	      6.95401570	      3.65387801	     52.25897860	    -19.98411911	     21.13334714	     83.76600113	     51.65851820	      0.00000000	      0.00000000	     70.98630271	    -13.38598350	     46.97761136	     48.33083239	     48.63930864	      0.00000000	      0.00000000
      2.52000000	    -30.47185642	      5.68330124	      4.99263742	      0.25979053	      1.05886469	     -0.19237207	      0.00000000	      0.50000000	      0.00000000	      0.25000000	     57.26294626	    -10.02973854	      3.45728463	     40.07487094	      0.69943845	    -13.95239926	    -13.57396436	      0.00000000	      0.00000000	     64.64503383	     -3.17097307	     -0.27324692	     90.61099431	      1.58146019	     -5.87117226	     -3.44054117	      0.00000000	      0.00000000	    -44.87123056	      6.20630955	      3.05194386	     51.86549506	    -20.42000150	     21.13623649	     83.60599049	     51.63484990	      0.00000000	      0.00000000	     70.83777450	    -13.19700001	     47.02731363	     48.35622529	     48.65460097	      0.00000000	      0.00000000
      2.52500000	    -30.26802093	      6.21232482	      5.02640521	      0.26068304	      1.05666643	     -0.19123812	      0.00000000	      0.50000000	      0.00000000	      0.25000000	     56.33087341	    -10.45536218	      3.45083774	     39.18104110	      0.68383817	    -14.48105889	    -13.02378180	      0.00000000	      0.00000000	     65.32468792	     -3.45330123	     -0.80608523	     92.25263431	      1.61011221	     -4.99739603	     -2.46307755	      0.00000000	      0.00000000	    -44.66408843	      5.23930503	      2.83061526	     51.12122253	    -21.36652780	     21.32717732	     83.26690916	     51.60248422	      0.00000000	      0.00000000	     70.67710346	    -12.82397892	     47.07498299	     48.50710673	     48.69429613	      0.00000000	      0.00000000
